<svg width="16" height="16" viewBox="0 0 16 16" fill="none" xmlns="http://www.w3.org/2000/svg">
<rect width="16" height="16" fill="#EFEFEF"/>
<rect width="1440" height="7853" transform="translate(-168 -4994)" fill="white"/>
<g filter="url(#filter0_d_0_1)">
<rect x="-24" y="-339" width="368" height="390" rx="6" fill="white" shape-rendering="crispEdges"/>
<path d="M8 0C3.58888 0 0 3.58888 0 8C0 12.4111 3.58888 16 8 16C12.4111 16 16 12.4111 16 8C16 3.58888 12.4111 0 8 0ZM8 15C4.14013 15 1 11.8599 1 8C1 4.14013 4.14013 1 8 1C11.8599 1 15 4.14013 15 8C15 11.8599 11.8599 15 8 15Z" fill="black"/>
<path d="M8.5 3.00049H7.5V8.20751L10.6465 11.354L11.3535 10.647L8.5 7.79344V3.00049Z" fill="black"/>
</g>
<defs>
<filter id="filter0_d_0_1" x="-69" y="-372" width="458" height="480" filterUnits="userSpaceOnUse" color-interpolation-filters="sRGB">
<feFlood flood-opacity="0" result="BackgroundImageFix"/>
<feColorMatrix in="SourceAlpha" type="matrix" values="0 0 0 0 0 0 0 0 0 0 0 0 0 0 0 0 0 0 127 0" result="hardAlpha"/>
<feOffset dy="12"/>
<feGaussianBlur stdDeviation="22.5"/>
<feComposite in2="hardAlpha" operator="out"/>
<feColorMatrix type="matrix" values="0 0 0 0 0 0 0 0 0 0 0 0 0 0 0 0 0 0 0.08 0"/>
<feBlend mode="normal" in2="BackgroundImageFix" result="effect1_dropShadow_0_1"/>
<feBlend mode="normal" in="SourceGraphic" in2="effect1_dropShadow_0_1" result="shape"/>
</filter>
</defs>
</svg>
